# xmcd CD database file
#
# Track frame offsets:
#	150
#	21448
#	35126
#	45126
#	63213
#	75699
#	88764
#	111060
#	133281
#	150846
#
# Disc length: 2281 seconds
#
# Revision: 0
# Processed by: cddbd v1.5.1PL0 Copyright (c) Steve Scherf et al.
# Submitted via: CDex 1.51
#
DISCID=7608e70a
DTITLE=Michelle LeBlanc - Now or Never
DYEAR=1999
DGENRE=Jazz
TTITLE0=A Sleepin' Bee
TTITLE1=Exactly Like You
TTITLE2=Honeysuckle Scrapple
TTITLE3=The Very Thought of You
TTITLE4=What Is This Thing Called Love?
TTITLE5=Now or Never
TTITLE6=Autumn Leaves
TTITLE7=Save Your Love for Me
TTITLE8=Old Country
TTITLE9=Brother Can You Spare a Dime?
EXTD=YEAR: 1999
EXTT0=
EXTT1=
EXTT2=
EXTT3=
EXTT4=
EXTT5=
EXTT6=
EXTT7=
EXTT8=
EXTT9=
PLAYORDER=
